# xmcd
#
# Track frame offsets: 
#        150
#        8507
#        16190
#        39592
#        84230
#        112580
#        132152
#        160570
#
# Disc length: 2328 seconds
#
# Revision: 6
# Processed by: cddbd v1.5.2PL0 Copyright (c) Steve Scherf et al.
# Submitted via: ExactAudioCopyFreeDBPlugin 1.0
#
DISCID=42091608
DTITLE=B.B. King - Live in Cook County Jail
DYEAR=1971
DGENRE=Blues
TTITLE0=Introductions
TTITLE1=Every Day I Have the Blues
TTITLE2=How Blue Can You Get?
TTITLE3=Worry, Worry
TTITLE4=Medley:  3 O'Clock Blues - Darlin' You Know I Love You
TTITLE5=Sweet Sixteen
TTITLE6=The Thrill is Gone
TTITLE7=Please Accept My Love
EXTD=
EXTT0=
EXTT1=
EXTT2=
EXTT3=
EXTT4=
EXTT5=
EXTT6=
EXTT7=
PLAYORDER=
